<?xml version="1.0" encoding="UTF-8"?>
<svg id="Layer_2" data-name="Layer 2" xmlns="http://www.w3.org/2000/svg" xmlns:xlink="http://www.w3.org/1999/xlink" viewBox="0 0 3873.04 776.89">
  <defs>
    <style>
      .cls-1 {
        fill: #f7f7f7;
        stroke: #e0e0e0;
        stroke-miterlimit: 10;
        stroke-width: 21.07px;
      }

      .cls-2 {
        fill: url(#linear-gradient);
      }

      .cls-2, .cls-3, .cls-4 {
        stroke-width: 0px;
      }

      .cls-3 {
        fill: url(#linear-gradient-2);
      }

      .cls-4 {
        fill: #023047;
      }
    </style>
    <linearGradient id="linear-gradient" x1="739.78" y1="240.15" x2="456.77" y2="503.12" gradientUnits="userSpaceOnUse">
      <stop offset="0" stop-color="#01f294"/>
      <stop offset="1" stop-color="#00bfd9"/>
    </linearGradient>
    <linearGradient id="linear-gradient-2" x1="657.95" y1="152.09" x2="374.94" y2="415.06" xlink:href="#linear-gradient"/>
  </defs>
  <g id="Layer_1-2" data-name="Layer 1">
    <rect class="cls-1" x="10.53" y="10.53" width="775.32" height="755.82" rx="30.67" ry="30.67"/>
    <path class="cls-2" d="m723.02,358.22v107.04c0,.71-.04,1.4-.11,2.08-.97,10.29-9.69,18.39-20.26,18.39h-94.63v121.46c0,14.33-11.69,26.01-26.01,26.01h-95.64c-14.41,0-25.99-11.69-25.99-26.01v-121.46h-93.36c-10.57,0-19.27-8.1-20.24-18.39-.06-.69-.11-1.38-.11-2.08v-107.04c0-.67.02-1.31.11-1.96,1.03-10.25,9.71-18.26,20.24-18.26h77.29c10.23,0,20.17,4.1,27.37,11.41l62.49,62.38.02.02.02-.02,32.29-31.64,31.58-31.02c7.22-7.11,16.97-11.13,27.2-11.13h77.38c10.53,0,19.2,8.01,20.26,18.26.09.64.11,1.29.11,1.96Z"/>
    <path class="cls-4" d="m244.11,274.57v243.56h72.91c29.19,0,54.28-8.57,75.27-26.01h56.22v104.68c-38.24,22.45-82.12,33.68-131.49,33.68H121.73V162.24h195.29c49.56,0,93.45,11.3,131.77,33.86,0,0,5.07,2.04,13.34,7.52-8.55,7.13-13.98,17.87-13.98,29.86v51.34c0,18.84,7.8,37.14,21.37,50.22.15.13.28.28.43.43-8.18-6.06-18.04-9.34-28.38-9.34h-26.08c-3.93-5.65-8.4-10.96-13.51-16.05-22.73-23.65-51.11-35.51-84.96-35.51h-72.91Z"/>
    <path class="cls-3" d="m608.68,233.47v51.81c0,15.51-6.32,30.31-17.51,41.03-8.74,8.38-19.66,18.8-29.99,28.53-10.18,9.6-19.83,18.58-26.32,24.38l-.02-.02-.02.02s-36.17-34.03-56.37-53.49c-11.13-10.7-17.42-25.48-17.42-40.92v-51.34c0-9.19,4.77-17.29,11.99-21.93,4.04-2.58,8.83-4.08,14.01-4.08h95.64c14.31,0,26.01,11.71,26.01,26.01Z"/>
    <g>
      <path class="cls-4" d="m1018.56,169.13h106.64c2.4,0,4.35,1.95,4.35,4.35v455.37c0,2.4-1.95,4.35-4.35,4.35h-106.64c-2.4,0-4.35-1.95-4.35-4.35V173.49c0-2.4,1.95-4.35,4.35-4.35Z"/>
      <path class="cls-4" d="m1609.31,169.13c73.25,0,133.31,21.5,180.17,64.5,46.86,42.99,70.29,98.38,70.29,166.17s-23.43,124.79-70.29,168.24c-46.86,43.45-106.92,65.17-180.17,65.17h-181.96c-2.4,0-4.35-1.95-4.35-4.35V173.49c0-2.4,1.95-4.35,4.35-4.35h181.96Zm0,360.34c37.76,0,69.5-12.39,95.2-37.2,25.7-24.79,38.56-55.62,38.56-92.48s-12.86-66.08-38.56-90.42c-25.71-24.33-57.44-36.52-95.2-36.52h-66.62c-2.4,0-4.35,1.95-4.35,4.35v247.91c0,2.4,1.95,4.35,4.35,4.35h66.62Z"/>
      <path class="cls-4" d="m1983.63,221c47.1-46.41,105.44-69.62,175.05-69.62s127.96,23.21,175.05,69.62c47.1,46.4,70.64,103.51,70.64,171.29s-23.54,124.89-70.64,171.29c-47.09,46.41-105.44,69.62-175.05,69.62s-127.96-23.21-175.05-69.62c-47.09-46.4-70.63-103.5-70.63-171.29s23.54-124.89,70.63-171.29Zm82.92,265.48c24.57,25.94,55.28,38.9,92.14,38.9s67.56-12.96,92.13-38.9c24.57-25.94,36.85-57.33,36.85-94.18s-12.28-68.25-36.85-94.18c-24.57-25.94-55.28-38.9-92.13-38.9s-67.56,12.96-92.14,38.9c-24.57,25.94-36.85,57.33-36.85,94.18s12.29,68.25,36.85,94.18Z"/>
      <path class="cls-4" d="m2775.01,631.39l-119.69-167.03c-1.64-2.29-5-2.44-6.84-.31l-63.57,73.75c-.68.79-1.06,1.8-1.06,2.84v88.21c0,2.4-1.95,4.35-4.35,4.35h-106.64c-2.4,0-4.35-1.95-4.35-4.35V173.49c0-2.4,1.95-4.35,4.35-4.35h106.64c2.4,0,4.35,1.95,4.35,4.35v196.93c0,4.03,5,5.89,7.64,2.85l176-202.64c.83-.95,2.03-1.5,3.29-1.5h124.96c3.73,0,5.73,4.39,3.29,7.21l-168.21,193.54c-1.34,1.54-1.43,3.79-.22,5.43l184.61,250.96c2.11,2.87.06,6.93-3.51,6.93h-133.16c-1.4,0-2.72-.68-3.54-1.82Z"/>
      <path class="cls-4" d="m2961.6,221c47.1-46.41,105.44-69.62,175.05-69.62s127.96,23.21,175.05,69.62c47.1,46.4,70.64,103.51,70.64,171.29s-23.54,124.89-70.64,171.29c-47.09,46.41-105.44,69.62-175.05,69.62s-127.96-23.21-175.05-69.62c-47.09-46.4-70.63-103.5-70.63-171.29s23.54-124.89,70.63-171.29Zm82.92,265.48c24.57,25.94,55.28,38.9,92.14,38.9s67.56-12.96,92.13-38.9c24.57-25.94,36.85-57.33,36.85-94.18s-12.28-68.25-36.85-94.18c-24.57-25.94-55.28-38.9-92.13-38.9s-67.56,12.96-92.14,38.9c-24.57,25.94-36.85,57.33-36.85,94.18s12.29,68.25,36.85,94.18Z"/>
      <path class="cls-4" d="m3762.73,169.13h105.95c2.4,0,4.35,1.95,4.35,4.35v455.37c0,2.4-1.95,4.35-4.35,4.35h-82.39c-1.26,0-2.45-.54-3.28-1.49l-213.55-244.34c-2.65-3.03-7.63-1.16-7.63,2.86v238.61c0,2.4-1.95,4.35-4.35,4.35h-106.64c-2.4,0-4.35-1.95-4.35-4.35V173.49c0-2.4,1.95-4.35,4.35-4.35h81.68c1.27,0,2.48.56,3.31,1.52l214.89,250.92c2.63,3.07,7.66,1.21,7.66-2.83v-245.26c0-2.4,1.95-4.35,4.35-4.35Z"/>
      <path class="cls-4" d="m1350.52,347.85v106.64c0,2.4-.6,4.35-1.35,4.35h-141.12c-.75,0-1.35-1.95-1.35-4.35v-106.64c0-2.4.6-4.35,1.35-4.35h141.12c.75,0,1.35,1.95,1.35,4.35Z"/>
    </g>
  </g>
</svg>