<svg xmlns="http://www.w3.org/2000/svg" width="80.002" height="73.559" viewBox="0 0 80.002 73.559">
  <g id="barcode-scanner" transform="translate(76 -46.258)">
    <path id="Path_2614" data-name="Path 2614" d="M23430.184,19169.523a7.093,7.093,0,0,1-6.984-8.332l5.109-28.906h-6.969a2.8,2.8,0,0,1-2.6-1.76l-12.289-30.721a2.8,2.8,0,0,1,2.6-3.84h39.754a12.214,12.214,0,0,1,12.2,12.2v11.916a12.22,12.22,0,0,1-8.475,11.617l-5.65,31.961a7.088,7.088,0,0,1-6.988,5.863Zm-1.473-7.357a1.5,1.5,0,0,0,1.473,1.758h9.707a1.5,1.5,0,0,0,1.477-1.236l5.375-30.4h-12.748l-2.27,12.832h3.3a2.8,2.8,0,1,1,0,5.6h-4.287Zm6.727-35.479h13.367a6.613,6.613,0,0,0,6.6-6.605v-11.914a6.613,6.613,0,0,0-6.6-6.605h-23.414Zm-12.2,0h6.176l-10.051-25.121h-6.176Zm-25.18,15.7a27.953,27.953,0,0,1-14.848-36.592,2.8,2.8,0,0,1,5.156,2.18,22.35,22.35,0,0,0,11.871,29.256,2.8,2.8,0,0,1-2.18,5.156Zm5-11.822a15.088,15.088,0,0,1-8.02-19.773,2.8,2.8,0,0,1,5.156,2.18,9.492,9.492,0,0,0,5.045,12.438,2.8,2.8,0,0,1-2.182,5.156Z" transform="translate(-23457.002 -19049.707)" fill="#a2a2a2"/>
  </g>
</svg>
