<svg xmlns="http://www.w3.org/2000/svg" width="32" height="32.002" viewBox="0 0 32 32.002">
  <g id="credit-card" transform="translate(0)">
    <path id="Контур_2636" data-name="Контур 2636" d="M23564.324,18186.242a3.335,3.335,0,0,1-3.328-3.334v-12a3.332,3.332,0,0,1,3.328-3.332h1.131l-.492-1.314a3.4,3.4,0,0,1,1.885-4.346l17.867-7.414a.76.76,0,0,1,.074-.031,3.406,3.406,0,0,1,4.408,1.959l3.576,9.3a3.424,3.424,0,0,1-1.9,4.383l-.621.25a3.421,3.421,0,0,1,.049.543v12a3.337,3.337,0,0,1-3.328,3.334Zm-2.264-3.334a2.271,2.271,0,0,0,2.264,2.268h22.648a2.269,2.269,0,0,0,2.264-2.268v-6.8h-27.176Zm0-7.867h27.176v-3.2h-27.176Zm.016-4.268h27.148a2.266,2.266,0,0,0-2.252-2.133h-22.648A2.263,2.263,0,0,0,23562.076,18170.773Zm11.941-8.064,1.129,2.828a.53.53,0,0,1-.256.678l-2.721,1.361h14.8a3.336,3.336,0,0,1,2.945,1.779l.553-.223a2.354,2.354,0,0,0,1.309-3.014l-3.578-9.307c0-.016-.014-.037-.02-.055a2.339,2.339,0,0,0-3.059-1.268l-17.867,7.412a2.339,2.339,0,0,0-1.295,2.988l.631,1.686h2.8l-.883-2.205a.534.534,0,0,1,.258-.678l4.518-2.26a.109.109,0,0,1,.041-.018.462.462,0,0,1,.2-.039A.531.531,0,0,1,23574.018,18162.709Zm-4.334,2.719.732,1.832,3.561-1.781-.734-1.834Zm13.689,18.246a3.2,3.2,0,1,1,1.6.432A3.18,3.18,0,0,1,23583.373,18183.674Zm.893-4.77a3.192,3.192,0,0,1,0,4.008,2.18,2.18,0,0,0,.709.131,2.133,2.133,0,0,0,0-4.266A2.078,2.078,0,0,0,23584.266,18178.9Zm-4.619,2a2.134,2.134,0,0,0,2.131,2.135,2.207,2.207,0,0,0,.707-.131,3.192,3.192,0,0,1,0-4.008,2.1,2.1,0,0,0-.707-.127A2.13,2.13,0,0,0,23579.646,18180.908Zm3.727,1.4a2.091,2.091,0,0,0,0-2.793A2.091,2.091,0,0,0,23583.373,18182.3Zm.1-17.057,5.08-2.262.432.975-5.08,2.264Zm-3.4-1.129,7.344-3.389.447.967-7.344,3.395Z" transform="translate(-23560.996 -18154.24)" fill="#a2a2a2"/>
  </g>
</svg>
