<svg width="32" height="33" viewBox="0 0 32 33" fill="none" xmlns="http://www.w3.org/2000/svg">
<path d="M3.32812 32.0013C2.44501 31.9995 1.5985 31.6478 0.974609 31.0228C0.350717 30.3978 0.000262856 29.5504 0 28.6673V16.6673C-6.36275e-07 15.7843 0.350603 14.9366 0.974609 14.3119C1.59862 13.6871 2.44512 13.3363 3.32812 13.3353H4.45898L3.9668 12.0208C3.65402 11.1935 3.67541 10.2776 4.02734 9.46615C4.37928 8.65474 5.03382 8.01208 5.85156 7.67513L23.7188 0.26107C23.7429 0.249441 23.7678 0.238843 23.793 0.22982C24.211 0.0683524 24.6575 -0.007849 25.1055 0.00325743C25.5534 0.0143639 25.9948 0.11229 26.4043 0.294273C26.8138 0.476256 27.1818 0.738749 27.4902 1.0638C27.7987 1.38886 28.0409 1.77034 28.2012 2.1888L31.7773 11.4896C32.0942 12.3237 32.0717 13.2471 31.7168 14.0658C31.3619 14.8844 30.7023 15.5334 29.877 15.8724L29.2559 16.1224C29.2866 16.3018 29.3028 16.4834 29.3047 16.6654V28.6654C29.3039 29.5483 28.9539 30.394 28.3301 31.0189C27.7063 31.6438 26.8595 31.997 25.9766 31.9994L3.32812 32.0013ZM1.06445 28.6673C1.06524 29.2679 1.30422 29.8438 1.72852 30.2689C2.15281 30.6939 2.72755 30.933 3.32812 30.9349H25.9766C26.5773 30.9336 27.1518 30.694 27.5762 30.2689C28.0006 29.8437 28.24 29.2681 28.2402 28.6673V21.8665H1.06445V28.6673ZM1.06445 20.8001H28.2402V17.6009H1.06445V20.8001ZM1.08008 16.5326H28.2285C28.1947 15.9573 27.9418 15.4171 27.5234 15.0208C27.1051 14.6246 26.5528 14.4023 25.9766 14.3997H3.32812C2.75239 14.4026 2.1989 14.6245 1.78125 15.0208C1.3636 15.4171 1.11314 15.9578 1.08008 16.5326ZM13.0215 8.4681L14.1504 11.2962C14.2018 11.4206 14.2038 11.559 14.1562 11.6849C14.1087 11.8108 14.0153 11.9146 13.8945 11.974L11.1738 13.3353H25.9727C26.5789 13.3363 27.1745 13.5023 27.6934 13.8158C28.2122 14.1292 28.635 14.5785 28.918 15.1146L29.4707 14.8919C30.0388 14.6594 30.4938 14.2128 30.7383 13.6497C30.9828 13.0867 30.9972 12.4502 30.7793 11.8763L27.2012 2.56966C27.2012 2.55366 27.1876 2.53298 27.1816 2.51498C27.0643 2.23065 26.8931 1.97288 26.6758 1.75521C26.4585 1.53754 26.2002 1.36518 25.916 1.2474C25.6319 1.12962 25.3271 1.06762 25.0195 1.06771C24.7119 1.0678 24.4071 1.12946 24.123 1.2474L6.25586 8.65951C5.69405 8.89164 5.24564 9.33223 5.00391 9.88998C4.76218 10.4477 4.7462 11.0791 4.96094 11.6478L5.5918 13.3333H8.39258L7.50977 11.1283C7.45949 11.0035 7.45803 10.8633 7.50586 10.7376C7.55369 10.6119 7.6471 10.5103 7.76758 10.4505L12.2852 8.19076C12.2974 8.18199 12.3114 8.17432 12.3262 8.17123C12.3891 8.1435 12.4567 8.13012 12.5254 8.13216C12.6322 8.13166 12.7377 8.1642 12.8262 8.22396C12.9147 8.28372 12.9821 8.36887 13.0215 8.4681ZM8.6875 11.1869L9.41797 13.0189L12.9805 11.2376L12.2461 9.40365L8.6875 11.1869ZM22.375 29.4329C21.7035 29.0434 21.1973 28.4225 20.9492 27.6869C20.7012 26.9512 20.7288 26.1515 21.0273 25.4349C21.3258 24.7183 21.8753 24.1343 22.5723 23.7923C23.2692 23.4503 24.0669 23.3732 24.8164 23.5755C25.5659 23.7779 26.2164 24.2456 26.6465 24.8919C27.0766 25.5382 27.257 26.3197 27.1543 27.0892C27.0515 27.8587 26.6725 28.5647 26.0879 29.0755C25.5033 29.5863 24.7529 29.866 23.9766 29.8646C23.4148 29.8644 22.8624 29.7157 22.377 29.4329H22.375ZM23.2695 24.6634C23.7273 25.231 23.9766 25.9381 23.9766 26.6673C23.9766 27.3965 23.7273 28.1036 23.2695 28.6712C23.497 28.7539 23.7365 28.7981 23.9785 28.8021C24.5442 28.8021 25.0863 28.5771 25.4863 28.1771C25.8863 27.7771 26.1113 27.235 26.1113 26.6693C26.1113 26.1036 25.8863 25.5615 25.4863 25.1615C25.0863 24.7614 24.5442 24.5365 23.9785 24.5365C23.7372 24.536 23.4966 24.5777 23.2695 24.6595V24.6634ZM18.6504 26.6634C18.6501 27.229 18.8739 27.7709 19.2734 28.1712C19.673 28.5716 20.2156 28.7974 20.7812 28.7982C21.0225 28.7935 21.2614 28.7493 21.4883 28.6673C21.0305 28.0997 20.7812 27.3926 20.7812 26.6634C20.7812 25.9342 21.0305 25.2271 21.4883 24.6595C21.2617 24.5769 21.0225 24.534 20.7812 24.5326C20.501 24.5324 20.2237 24.5874 19.9648 24.6947C19.706 24.802 19.4694 24.9592 19.2715 25.1576C19.0735 25.3559 18.9174 25.5918 18.8105 25.8509C18.7037 26.11 18.6497 26.3871 18.6504 26.6673V26.6634ZM22.377 28.0638C22.7212 27.6801 22.9121 27.1828 22.9121 26.6673C22.9121 26.1518 22.7212 25.6545 22.377 25.2708C22.0338 25.6543 21.8438 26.1508 21.8438 26.6654C21.8438 27.1799 22.0338 27.6765 22.377 28.0599V28.0638ZM22.4766 11.0052L27.5566 8.74349L27.9883 9.72005L22.9082 11.9837L22.4766 11.0052ZM19.0762 9.8763L26.4219 6.48763L26.8672 7.45443L19.5234 10.8509L19.0762 9.8763Z" fill="white"/>
</svg>
