<svg width="32" height="28" viewBox="0 0 32 28" fill="none" xmlns="http://www.w3.org/2000/svg">
<g clip-path="url(#clip0_502_2)">
<path d="M31.955 15.844L25.913 0.404019C25.8835 0.326511 25.8389 0.255651 25.7817 0.195569C25.7245 0.135487 25.656 0.0873831 25.58 0.0540627C25.5041 0.0207424 25.4223 0.00287154 25.3393 0.00149047C25.2564 0.000109413 25.174 0.0152466 25.097 0.0460194L0.58602 9.98002C0.486201 10.0234 0.399614 10.0924 0.33502 10.18C0.233962 10.2341 0.149443 10.3145 0.0904545 10.4128C0.0314657 10.511 0.000212779 10.6234 1.99666e-05 10.738V27.361C-0.00131229 27.529 0.0640735 27.6906 0.181819 27.8104C0.299565 27.9303 0.460045 27.9984 0.62802 28H27.011C27.179 27.9984 27.3395 27.9303 27.4572 27.8104C27.575 27.6906 27.6404 27.529 27.639 27.361V18.282L31.6 16.675C31.7566 16.611 31.8817 16.4879 31.9481 16.3324C32.0146 16.1768 32.017 16.0014 31.955 15.844ZM26.383 26.722H1.25602V11.377H26.383V26.722ZM10.483 10.102L21 5.83602C21.461 6.33024 22.0181 6.72499 22.6372 6.99601C23.2563 7.26703 23.9242 7.4086 24.6 7.41202L25.649 10.097L10.483 10.102ZM27.639 16.912V10.738C27.6404 10.57 27.575 10.4084 27.4572 10.2886C27.3395 10.1688 27.179 10.1006 27.011 10.099H27L25.669 6.69902C25.6542 6.6705 25.6368 6.64339 25.617 6.61802C25.5859 6.47041 25.5023 6.33912 25.3816 6.24861C25.2609 6.1581 25.1114 6.11453 24.961 6.12602C24.3349 6.1826 23.7046 6.07987 23.1289 5.8274C22.5531 5.57493 22.0506 5.18091 21.668 4.68202C21.5746 4.56342 21.4409 4.48331 21.2923 4.45694C21.1436 4.43057 20.9905 4.45978 20.862 4.53902C20.832 4.54274 20.8023 4.54842 20.773 4.55602L7.93202 9.75602C7.85472 9.78705 7.78439 9.83319 7.72515 9.89174C7.66591 9.9503 7.61895 10.0201 7.58702 10.097H3.68702L24.977 1.46902L30.555 15.723L27.639 16.912Z" fill="white"/>
<path d="M2.94895 22.526C3.54604 22.7024 4.08963 23.0251 4.5304 23.4648C4.97116 23.9045 5.29515 24.4473 5.47295 25.044C5.51136 25.1733 5.59054 25.2866 5.69868 25.3672C5.80681 25.4477 5.9381 25.4912 6.07295 25.491C6.10663 25.4893 6.1401 25.4846 6.17295 25.477C6.20115 25.4848 6.2299 25.4905 6.25895 25.494H21.265C21.2906 25.4905 21.316 25.4852 21.341 25.478C21.4905 25.5136 21.6481 25.4885 21.7792 25.4083C21.9104 25.3281 22.0044 25.1993 22.041 25.05C22.2178 24.4519 22.5415 23.9076 22.9825 23.4666C23.4236 23.0256 23.9679 22.7019 24.566 22.525C24.7085 22.4815 24.8305 22.3878 24.9093 22.2614C24.9882 22.1349 25.0186 21.9841 24.995 21.837C25.0033 21.8065 25.0093 21.7754 25.013 21.744V16.744C25.0092 16.7125 25.0029 16.6814 24.994 16.651C25.0176 16.5038 24.9872 16.3531 24.9083 16.2266C24.8295 16.1002 24.7075 16.0065 24.565 15.963C23.9668 15.7861 23.4225 15.4623 22.9816 15.0211C22.5407 14.5798 22.2174 14.0353 22.041 13.437C21.9972 13.2936 21.9027 13.171 21.7752 13.0921C21.6477 13.0131 21.4959 12.9833 21.348 13.008C21.3191 12.9998 21.2897 12.9938 21.26 12.99H6.25495C6.22349 12.9938 6.19239 13.0002 6.16195 13.009C6.01483 12.9856 5.86418 13.0161 5.73777 13.0949C5.61135 13.1737 5.51766 13.2956 5.47395 13.438C5.29684 14.0358 4.97306 14.5799 4.53207 15.0207C4.09108 15.4616 3.54687 15.7851 2.94895 15.962C2.80641 16.0055 2.68444 16.0992 2.60558 16.2256C2.52672 16.3521 2.49631 16.5028 2.51995 16.65C2.51159 16.6808 2.50558 16.7122 2.50195 16.744V21.744C2.50571 21.7734 2.51173 21.8025 2.51995 21.831C2.49491 21.9792 2.52462 22.1314 2.60356 22.2593C2.6825 22.3872 2.80526 22.482 2.94895 22.526ZM3.74895 16.995C4.37054 16.7454 4.93517 16.3725 5.40882 15.8988C5.88247 15.4252 6.25533 14.8606 6.50495 14.239H21.005C21.2546 14.8606 21.6275 15.4251 22.1012 15.8988C22.5748 16.3724 23.1394 16.7453 23.761 16.995V21.495C23.1395 21.7449 22.5751 22.1179 22.1015 22.5915C21.6278 23.0651 21.2549 23.6296 21.005 24.251H6.50495C6.25503 23.6296 5.88206 23.0651 5.40845 22.5915C4.93484 22.1179 4.37037 21.7449 3.74895 21.495V16.995Z" fill="white"/>
<path d="M13.817 22.842C14.5594 22.842 15.2851 22.6218 15.9023 22.2093C16.5196 21.7968 17.0006 21.2105 17.2846 20.5245C17.5685 19.8386 17.6427 19.0838 17.4976 18.3557C17.3526 17.6276 16.9948 16.9589 16.4697 16.4342C15.9445 15.9094 15.2755 15.5522 14.5473 15.4077C13.8191 15.2633 13.0644 15.338 12.3787 15.6225C11.693 15.9071 11.107 16.3886 10.695 17.0061C10.283 17.6237 10.0634 18.3496 10.064 19.092C10.0648 20.0868 10.4605 21.0407 11.1642 21.7438C11.868 22.447 12.8221 22.842 13.817 22.842ZM13.817 16.588C14.3114 16.588 14.7948 16.7346 15.2059 17.0093C15.617 17.284 15.9374 17.6745 16.1267 18.1313C16.3159 18.5881 16.3654 19.0908 16.2689 19.5757C16.1725 20.0607 15.9344 20.5061 15.5847 20.8558C15.2351 21.2054 14.7896 21.4435 14.3047 21.54C13.8197 21.6364 13.3171 21.5869 12.8603 21.3977C12.4034 21.2085 12.013 20.8881 11.7383 20.4769C11.4636 20.0658 11.317 19.5825 11.317 19.088C11.318 18.4257 11.5819 17.7908 12.0506 17.3228C12.5193 16.8548 13.1546 16.592 13.817 16.592V16.588Z" fill="white"/>
<path d="M6.90724 19.994C7.09276 19.994 7.27411 19.939 7.42836 19.8359C7.58261 19.7328 7.70284 19.5863 7.77383 19.4149C7.84483 19.2435 7.86341 19.0549 7.82722 18.873C7.79102 18.691 7.70168 18.5239 7.5705 18.3927C7.43932 18.2615 7.27219 18.1722 7.09023 18.136C6.90828 18.0998 6.71968 18.1184 6.54828 18.1894C6.37688 18.2604 6.23039 18.3806 6.12732 18.5349C6.02425 18.6891 5.96924 18.8705 5.96924 19.056C5.96924 19.1792 5.9935 19.3011 6.04064 19.4149C6.08778 19.5287 6.15687 19.6321 6.24397 19.7192C6.33107 19.8063 6.43448 19.8754 6.54828 19.9226C6.66208 19.9697 6.78406 19.994 6.90724 19.994ZM6.90724 18.743C6.96915 18.743 7.02966 18.7613 7.08113 18.7957C7.1326 18.8301 7.17272 18.879 7.19641 18.9362C7.2201 18.9934 7.2263 19.0563 7.21423 19.117C7.20215 19.1778 7.17234 19.2335 7.12856 19.2773C7.08479 19.3211 7.02902 19.3509 6.9683 19.3629C6.90758 19.375 6.84465 19.3688 6.78746 19.3452C6.73027 19.3215 6.68138 19.2813 6.64699 19.2299C6.6126 19.1784 6.59424 19.1179 6.59424 19.056C6.59424 18.973 6.62721 18.8934 6.68591 18.8347C6.74461 18.776 6.82423 18.743 6.90724 18.743Z" fill="white"/>
<path d="M20.731 19.994C20.9165 19.994 21.0978 19.939 21.2521 19.8359C21.4063 19.7328 21.5266 19.5863 21.5976 19.4149C21.6686 19.2435 21.6871 19.0549 21.6509 18.873C21.6147 18.691 21.5254 18.5239 21.3942 18.3927C21.2631 18.2615 21.0959 18.1722 20.914 18.136C20.732 18.0998 20.5434 18.1184 20.372 18.1894C20.2006 18.2604 20.0541 18.3806 19.951 18.5349C19.848 18.6891 19.793 18.8705 19.793 19.056C19.793 19.3047 19.8918 19.5433 20.0677 19.7192C20.2436 19.8952 20.4822 19.994 20.731 19.994ZM20.731 18.743C20.7929 18.743 20.8534 18.7613 20.9049 18.7957C20.9563 18.8301 20.9965 18.879 21.0201 18.9362C21.0438 18.9934 21.05 19.0563 21.0379 19.117C21.0259 19.1778 20.9961 19.2335 20.9523 19.2773C20.9085 19.3211 20.8528 19.3509 20.792 19.3629C20.7313 19.375 20.6684 19.3688 20.6112 19.3452C20.554 19.3215 20.5051 19.2813 20.4707 19.2299C20.4363 19.1784 20.418 19.1179 20.418 19.056C20.418 18.973 20.4509 18.8934 20.5096 18.8347C20.5683 18.776 20.648 18.743 20.731 18.743Z" fill="white"/>
</g>
<defs>
<clipPath id="clip0_502_2">
<rect width="32" height="28" fill="white"/>
</clipPath>
</defs>
</svg>
