<svg id="money" xmlns="http://www.w3.org/2000/svg" width="32" height="28" viewBox="0 0 32 28">
  <path id="Контур_1938" data-name="Контур 1938" d="M31.955,44.432h0l-6.042-15.44a.625.625,0,0,0-.816-.358h0L.586,38.568a.618.618,0,0,0-.251.2A.634.634,0,0,0,0,39.326V55.949a.634.634,0,0,0,.628.639H27.011a.634.634,0,0,0,.628-.639V46.87L31.6,45.263A.643.643,0,0,0,31.955,44.432ZM26.383,55.31H1.256V39.965H26.383Zm-15.9-16.62L21,34.424A4.957,4.957,0,0,0,24.6,36l1.049,2.685ZM27.639,45.5V39.326a.634.634,0,0,0-.628-.639H27l-1.331-3.4a.531.531,0,0,0-.052-.081.622.622,0,0,0-.656-.492,3.727,3.727,0,0,1-3.293-1.444.615.615,0,0,0-.806-.143.694.694,0,0,0-.089.017l-12.841,5.2a.626.626,0,0,0-.345.341h-3.9l21.29-8.628,5.578,14.254Z" transform="translate(0 -28.588)" fill="#a2a2a2"/>
  <path id="Контур_1939" data-name="Контур 1939" d="M32.447,196.482A3.739,3.739,0,0,1,34.971,199a.625.625,0,0,0,.6.447.575.575,0,0,0,.1-.014.582.582,0,0,0,.086.017H50.763a.537.537,0,0,0,.076-.016.582.582,0,0,0,.7-.428v0a3.739,3.739,0,0,1,2.525-2.525.617.617,0,0,0,.429-.688.63.63,0,0,0,.018-.093v-5a.566.566,0,0,0-.019-.093.617.617,0,0,0-.429-.688,3.736,3.736,0,0,1-2.524-2.526.618.618,0,0,0-.693-.429.593.593,0,0,0-.088-.018H35.753a.592.592,0,0,0-.093.019.618.618,0,0,0-.688.429,3.74,3.74,0,0,1-2.525,2.524.617.617,0,0,0-.429.688A.634.634,0,0,0,32,190.7v5a.577.577,0,0,0,.018.087A.619.619,0,0,0,32.447,196.482Zm.8-5.531a4.963,4.963,0,0,0,2.756-2.756h14.5a4.964,4.964,0,0,0,2.756,2.756v4.5a4.969,4.969,0,0,0-2.756,2.756h-14.5a4.969,4.969,0,0,0-2.756-2.756Z" transform="translate(-29.498 -173.956)" fill="#a2a2a2"/>
  <path id="Контур_1940" data-name="Контур 1940" d="M131.753,226.45A3.753,3.753,0,1,0,128,222.7,3.753,3.753,0,0,0,131.753,226.45Zm0-6.254a2.5,2.5,0,1,1-2.5,2.5A2.5,2.5,0,0,1,131.753,220.2Z" transform="translate(-117.936 -203.608)" fill="#a2a2a2"/>
  <path id="Контур_1941" data-name="Контур 1941" d="M76.938,256.821a.938.938,0,1,0-.938-.938A.938.938,0,0,0,76.938,256.821Zm0-1.251a.313.313,0,1,1-.313.313A.313.313,0,0,1,76.938,255.57Z" transform="translate(-70.031 -236.827)" fill="#a2a2a2"/>
  <path id="Контур_1942" data-name="Контур 1942" d="M252.938,256.821a.938.938,0,1,0-.938-.938A.938.938,0,0,0,252.938,256.821Zm0-1.251a.313.313,0,1,1-.313.313A.313.313,0,0,1,252.938,255.57Z" transform="translate(-232.207 -236.827)" fill="#a2a2a2"/>
</svg>
