<svg xmlns="http://www.w3.org/2000/svg" width="32.026" height="32" viewBox="0 0 32.026 32">
  <path id="qr-code" d="M10573.629,9212.333a.628.628,0,0,1,0-1.256h3.142v-3.26a.628.628,0,0,1,1.256,0v3.888a.628.628,0,0,1-.628.628Zm-27,0a.628.628,0,0,1-.628-.628v-3.888a.628.628,0,0,1,1.256,0v3.26h3.142a.628.628,0,0,1,0,1.256Zm18.338-3.843a.628.628,0,0,1-.628-.628v-8.686a.628.628,0,0,1,.628-.628h8.686a.628.628,0,0,1,.628.628v8.686a.628.628,0,0,1-.628.628Zm.628-1.256h7.43v-7.43h-7.43Zm-4.209.628v-10.89h-8.336a.628.628,0,0,1,0-1.256h8.336v-11.036a.628.628,0,0,1,1.256,0v11.036h11.011a.628.628,0,0,1,0,1.256h-11.011v10.89a.628.628,0,0,1-1.256,0Zm-10.889.628a.628.628,0,0,1-.629-.628v-8.686a.628.628,0,0,1,.629-.628h8.686a.628.628,0,0,1,.628.628v8.686a.628.628,0,0,1-.628.628Zm.628-1.256h7.43v-7.43h-7.43Zm16.882-1.737a.628.628,0,0,1-.628-.628v-2.605a.628.628,0,0,1,.628-.628h2.605a.628.628,0,0,1,.628.628v2.605a.628.628,0,0,1-.628.628Zm.628-1.256h1.35v-1.35h-1.35Zm-15.1,1.256a.627.627,0,0,1-.628-.628v-2.605a.627.627,0,0,1,.628-.628h2.605a.628.628,0,0,1,.628.628v2.605a.628.628,0,0,1-.628.628Zm.628-1.256h1.35v-1.35h-1.35Zm-4.3-7.759a.629.629,0,0,1,.468-.756l.034-.008a.628.628,0,1,1,.287,1.223l-.033.008a.616.616,0,0,1-.145.018A.629.629,0,0,1,10549.867,9196.482Zm15.1-2.418a.628.628,0,0,1-.628-.629v-8.686a.628.628,0,0,1,.628-.628h8.686a.628.628,0,0,1,.628.628v8.686a.628.628,0,0,1-.628.629Zm.628-1.257h7.43v-7.429h-7.43Zm-15.1,1.257a.628.628,0,0,1-.629-.629v-8.686a.628.628,0,0,1,.629-.628h8.686a.628.628,0,0,1,.628.628v2.141a.628.628,0,0,1-1.256,0v-1.513h-7.43v7.43h7.43v-1.019a.628.628,0,0,1,1.256,0v1.646a.628.628,0,0,1-.628.629Zm17.51-3.04a.628.628,0,0,1-.628-.629v-2.605a.628.628,0,0,1,.628-.628h2.605a.628.628,0,0,1,.628.628v2.605a.628.628,0,0,1-.628.629Zm.628-1.256h1.35v-1.351h-1.35Zm-15.1,1.256a.628.628,0,0,1-.628-.629v-2.605a.627.627,0,0,1,.628-.628h2.605a.628.628,0,0,1,.628.628v2.605a.628.628,0,0,1-.628.629Zm.628-1.256h1.35v-1.351h-1.35Zm4.389-.293a.628.628,0,0,1,.469-.755l.033-.008a.628.628,0,0,1,.287,1.223l-.034.008a.608.608,0,0,1-.144.018A.629.629,0,0,1,10558.553,9189.476Zm18.218-4.626v-3.261h-3.142a.628.628,0,0,1,0-1.256h3.77a.628.628,0,0,1,.628.628v3.889a.628.628,0,0,1-1.256,0Zm-30.771,0v-3.889a.628.628,0,0,1,.628-.628h3.77a.628.628,0,0,1,0,1.256h-3.142v3.261a.628.628,0,0,1-1.256,0Z" transform="translate(-10546 -9180.333)" fill="#a2a2a2"/>
</svg>
