<svg id="sales-cons" xmlns="http://www.w3.org/2000/svg" width="32" height="32" viewBox="0 0 32 32">
  <circle id="Ellipse_63" data-name="Ellipse 63" cx="16" cy="16" r="16" fill="#626262"/>
  <g id="Outline" transform="translate(6.625 5.648)">
    <path id="Path_2642" data-name="Path 2642" d="M23703.355,18851.09a.349.349,0,0,1-.35-.35v-3.131a3.162,3.162,0,0,1,1.988-3.105,10.116,10.116,0,0,0,2.266-.969l.668-.668v-.834a6.484,6.484,0,0,1-1.758-4.379,3.865,3.865,0,0,1,7.729,0,6.454,6.454,0,0,1-1.756,4.379v.834l.664.668a10.14,10.14,0,0,0,2.264.969,3.16,3.16,0,0,1,1.992,3.105v3.131a.351.351,0,0,1-.352.35Zm11.248-2.812v2.109h1.756v-2.777a2.458,2.458,0,0,0-1.5-2.434,11.112,11.112,0,0,1-2.26-.959l-.855,1.436a.36.36,0,0,1-.553.07l-.281-.279-.166.42.605,4.523h2.549v-2.109Zm-5.176,2.109h1.213l-.562-4.219h-.088Zm-3.258-2.109v2.109h2.549l.6-4.523-.168-.424-.273.277a.354.354,0,0,1-.551-.066l-.863-1.434a11.036,11.036,0,0,1-2.262.959,2.457,2.457,0,0,0-1.494,2.434v2.777h1.762v-2.109Zm3.523-3.375.227.566h.227l.227-.566-.34-.346Zm.908-.768.768.768.686-1.135-.316-.314Zm-2.582-.373.684,1.141.766-.768-1.139-.682Zm.607-.953,1.406.838,1.41-.838v-.221a2.74,2.74,0,0,1-1.41.422,2.705,2.705,0,0,1-1.406-.422Zm-1.646-4.113c.359,1.822,1.582,3.607,3.053,3.607,1.539,0,2.811-1.963,3.1-3.871a2.95,2.95,0,0,1-2.094-1.516A10.029,10.029,0,0,1,23706.98,18838.7Zm-.107-1.045c0,.111.006.229.018.348,1.443-.344,3.6-1.119,3.932-1.955a.348.348,0,0,1,.365-.219.354.354,0,0,1,.311.291,2.145,2.145,0,0,0,1.693,1.617c0-.025.012-.057.012-.078a3.166,3.166,0,0,0-6.33,0Zm8.588,1.781a.353.353,0,0,1-.146-.375l.592-2.377h-1.385a5.487,5.487,0,0,0-.193-.7h2.031a.348.348,0,0,1,.34.43l-.465,1.879,3.08-2.244a.351.351,0,0,1,.213-.064h2.807a1.054,1.054,0,0,0,1.053-1.059v-3.166a1.054,1.054,0,0,0-1.053-1.055h-10.891a1.056,1.056,0,0,0-1.057,1.055v1.426c-.119-.012-.236-.016-.354-.016a3.361,3.361,0,0,0-.346.016v-1.426a1.753,1.753,0,0,1,1.756-1.756h10.891a1.758,1.758,0,0,1,1.758,1.756v3.166a1.757,1.757,0,0,1-1.758,1.754h-2.7l-3.771,2.748a.356.356,0,0,1-.207.064A.332.332,0,0,1,23715.461,18839.432Z" transform="translate(-23703.006 -18830.004)" fill="#fff"/>
  </g>
</svg>
